<svg id="Layer_1" data-name="Layer 1" xmlns="http://www.w3.org/2000/svg" viewBox="0 0 1691.49 952.01"><defs><style>.cls-1{fill:#eaeaea;}.cls-2{fill:#f4f4f4;}.cls-3{fill:#d5d6da;}.cls-4{fill:#b8c1c9;}.cls-5{fill:#8895a5;}.cls-6{fill:#657285;}.cls-7{fill:#131f2d;}.cls-8{fill:#ef6343;}.cls-11,.cls-9{fill:#016eb9;}.cls-10{fill:#00a3fe;}.cls-11{opacity:0.5;}.cls-12{fill:#ff7955;}.cls-13{fill:#364154;}</style></defs><title>single chatting</title><path class="cls-1" d="M1710.2,1014.56l-1468.86-.47S44.88,787.77,208.12,542.75C277.92,438,373,358.49,493.61,368.72c54.5,4.58,318.16,68.06,486.45-156.86,24.51-32.76,47.71-64.42,78.75-86.84,66.1-48.08,150.52-65.48,231.13-59.77,151.2,10.71,302.28,102,358,252.74,48.26,130.58,7.17,223.56,1.58,283.93C1632.4,784.13,1813.59,806,1710.2,1014.56Z" transform="translate(-125.55 -64.2)"/><path class="cls-2" d="M980.06,211.86c10.36-13.85,20.48-27.49,31.06-40.33,198.14,69.68,460.3,183.09,654.11,344.66q-3,19.74-7.92,40.22c-.06.28-.14.58-.2.87-.39,1.58-.75,3.16-1.11,4.72l-.09.39c-.13.61-.27,1.22-.4,1.83q-1.44,6.53-2.56,12.81c-.13.66-.24,1.31-.35,2-.32,1.83-.62,3.63-.89,5.43-.13.79-.24,1.57-.35,2.36C1354.83,456,1036.17,385.59,804.67,348.42,866.25,323.8,927.76,281.76,980.06,211.86Z" transform="translate(-125.55 -64.2)"/><path class="cls-2" d="M274.35,460.39c317.47,20,911.44,113.3,1398.77,268.54,29.87,61.46,75.29,106.91,68.45,185.14C1434.63,798.82,852.81,599.85,243.72,494.45,253.59,482.41,263.64,471.18,274.35,460.39Z" transform="translate(-125.55 -64.2)"/><path class="cls-3" d="M1695.57,769.72c37.82,64.09,75.43,122.17,14.63,244.84l-1468.86-.47s-89-102.58-97.42-244.37Z" transform="translate(-125.55 -64.2)"/><path class="cls-4" d="M1740.18,925.85c-111.5-42.92-343.75-46.89-518.68-3.23-177.71,44.36-469-52.09-1038.14-2.32,27.1,58.21,58,93.79,58,93.79l1468.86.47C1727.07,980.52,1736.36,951.46,1740.18,925.85Z" transform="translate(-125.55 -64.2)"/><path class="cls-5" d="M455.91,972.71c292.68-69.6,783.3,15.1,783.3,15.1,201.59-50.19,353.25-43,490.52-19.73-4.86,14.43-11.15,30-16.28,46.48l-1472.11-.47s-20-23-41.89-62.31C311.19,948.6,455.91,972.71,455.91,972.71Z" transform="translate(-125.55 -64.2)"/><path class="cls-6" d="M701.86,806.35h643.42c63.47-38.28,148.43-184.87,215.58-298.75a7.66,7.66,0,0,1,10.55-2.23L1607.2,527a7.65,7.65,0,0,1,2.23,10.54l-211.73,325c-2.85,4.33-5,7.95-12.06,7.95H701.86a10.12,10.12,0,0,1-10.09-10.09v-44A10.12,10.12,0,0,1,701.86,806.35Z" transform="translate(-125.55 -64.2)"/><path class="cls-7" d="M1354.15,870.53l5.25,24.81,76,116.19c.21,1.25,1.93,2.2,4,2.2,3.91,0,6.95-2.09,6.53-4.48l-60.3-124.83-2.29-13.89Z" transform="translate(-125.55 -64.2)"/><path class="cls-7" d="M1354.15,870.53l5.25,24.81c3.61-9.88,26.24-10.92,26.24-10.92l-2.29-13.89Z" transform="translate(-125.55 -64.2)"/><path class="cls-7" d="M670.12,1013.73c2,0,3.76-1,4-2.2l76-116.19,3.28-15.48,2-9.33H726.17l-2.28,13.89-1.78,10.9-58.52,113.93C663.17,1011.64,666.21,1013.73,670.12,1013.73Z" transform="translate(-125.55 -64.2)"/><path class="cls-7" d="M722.11,895.32c7.43-11.82,31.28-15.45,31.28-15.45h0l2-9.33H726.17l-2.28,13.89Z" transform="translate(-125.55 -64.2)"/><path class="cls-7" d="M842.17,787.7S806.85,810.61,799.88,804c-8-7.56-10.13-16.25-27-43.52-13.81-22.29-26.6-42.76-28.51-50.19-1.27-4.92,17-2.37,28.63,11.21s38.9,33.41,58.67,25.13C856.57,736.24,842.17,787.7,842.17,787.7Z" transform="translate(-125.55 -64.2)"/><path class="cls-8" d="M1275.69,526s-20.8-1.11-27.36-4.53-29.65-20.8-38.74-20.87-29.79,7.92-34.74,11.48c-8.91,6.39,15.13,14,29.4,12.08a7.39,7.39,0,0,1,5.77,1.63c4.78,4,14.94,11.87,21.39,12.68,8.69,1.1,48.6,18.08,48.6,18.08Z" transform="translate(-125.55 -64.2)"/><path class="cls-8" d="M1526,452.52s-81.92,143.65-130.24,138.16c-23.84-2.71-84.78-17.13-145.34-46.12,0,0-3.85-12.54,3.84-20.64,0,0,106.14,11.66,128.77.1,33.68-17.21,52.3-120.28,90.07-133.23S1525.34,404.68,1526,452.52Z" transform="translate(-125.55 -64.2)"/><path class="cls-9" d="M1284.17,808.55a367.27,367.27,0,0,1-50.23-3.67c-50.68-6.77-96.76-19.55-126.68-8.74a141.05,141.05,0,0,1-20,5.43c-7.44,1.51-15.49,2.69-24,3.58-32,3.4-70.52,2.87-106.42.84-62.06-3.51-115.74-9.61-115.74-9.61-12.63-14.55-27.22-45.91-25.52-53.34,6.39-1,77.94-14.43,170.54-28.86l116.15-18.08,15.36-2.4,34.73-5.4L1308.52,664s99.35,83.89,78.63,112.1C1370.07,799.33,1353.59,808.25,1284.17,808.55Z" transform="translate(-125.55 -64.2)"/><path class="cls-7" d="M997.66,780.44s4.53,39.69-8.66,45.62c-7.48,3.37-48.53,1.45-48.53,1.45s-55.55,3.21-60.35,1.34,7.62-13.75,21-19.58c16.42-7.16,47-17.94,53.33-38.93C962.17,744.49,997.66,780.44,997.66,780.44Z" transform="translate(-125.55 -64.2)"/><path class="cls-10" d="M944.69,772.07s13.59,20.83,56.81,19.4c0,0,95.11-100.92,108-135.7.59-1.59,2-2.11,4.07-1.71,26,5,160.69,152.25,207.9,153.86,16.27.56,29.75-2.72,41.14-5.29,36.48-8.21,65.76-78.22,65.76-78.22L1292,621.88s-121.61-112.54-192.27-102.25C1032.51,529.42,944.69,772.07,944.69,772.07Z" transform="translate(-125.55 -64.2)"/><path class="cls-11" d="M1362.58,802.63c36.48-8.21,65.76-78.22,65.76-78.22l-4-3.64-45.67-18s-100.29,26.06-159.26-19.91c-55.24-43.06-100.32-30.59-105.82-28.84,26,5,160.69,152.25,207.9,153.86C1337.71,808.48,1351.19,805.2,1362.58,802.63Z" transform="translate(-125.55 -64.2)"/><path class="cls-12" d="M1440.6,414.1c33.29,18,82.55-29,82.55-29s-8.45-14.1-9.69-45.9c-.07-1.8,0-3.64.14-5.52l-17.31-8.4-33.19,17.61a242.21,242.21,0,0,0-2.79,28.47c-.16,3.18-.29,6.59-.37,10.25C1441.53,397.32,1440.6,414.1,1440.6,414.1Z" transform="translate(-125.55 -64.2)"/><path class="cls-13" d="M1519.65,573.25c-30.72,60.74-78.23,149.15-92.1,162.89-61.46-13.85-139.44-103.07-138.71-116.29s24.55-43.28,33.18-58.72c1-1.75,2-3.66,3.08-5.32l.35-.64.54-1c9.56-17.25,20-35.16,30.6-52.83,6.64-11.1,37.26-55.31,49.06-69.41,14.15-16.9,48-44.23,48-44.23,3.74,6.15,14.82-.33,29.51.22,15.92.59,37.69-13.78,39.14-11C1547.75,425,1558.71,496.06,1519.65,573.25Z" transform="translate(-125.55 -64.2)"/><path class="cls-7" d="M1533.08,461.68c-16.44,52.05-83.7,158.9-135,158.15-42.59-.62-83.69-5.82-105.68-11,7.1-14.89,22.95-35.68,29.64-47.67.47-.85,1-1.75,1.45-2.64,17-6.52,55.41-22.21,59.58-34.47,9-26.52,29.1-79.1,55.12-109.16C1459.07,390.73,1526,433,1533.08,461.68Z" transform="translate(-125.55 -64.2)"/><path class="cls-8" d="M1463.1,342.94a242.21,242.21,0,0,0-2.79,28.47c28.65-2,46.62-23,53.15-32.16,0-1.81,0-3.64.14-5.52l-17.31-8.4Z" transform="translate(-125.55 -64.2)"/><path class="cls-12" d="M1455.74,357.37s60.24,4.67,62.57-32.89,11.68-62.25-26.68-66.82-46.74,9.3-50.57,21.64S1440.13,355.19,1455.74,357.37Z" transform="translate(-125.55 -64.2)"/><path class="cls-7" d="M1280.67,587.27l-133.43-65.91,22.16-132.27a2.76,2.76,0,0,0-2.27-3.18h0a2.76,2.76,0,0,0-3.18,2.27l-23,137.47a3.43,3.43,0,0,0,1.87,3.64l133.85,66.12Z" transform="translate(-125.55 -64.2)"/><path class="cls-12" d="M1270.6,600.44s-49.2-11.13-64.81-20.77-25.07-24.39-25-29.49-.52-14.46,9.84-7.39,24.22,17.27,25.79,15.39-8-6.61-8-6.61-.7-5.65,3-3.93S1227.08,552,1230,556s2.74,13.08,5.75,14.26,44,3.83,44,3.83Z" transform="translate(-125.55 -64.2)"/><path class="cls-12" d="M1532,458.16s-83.94,151.13-132.57,151c-24-.06-114,.54-154.43-15.24,0,0-1.14-5,2.8-22.22,0,0,116.34-16.41,137.56-30.39C1416.9,520.5,1418.11,419,1454.22,402S1541.27,412.69,1532,458.16Z" transform="translate(-125.55 -64.2)"/><path class="cls-13" d="M1517.33,403.68c15,11.26,25.75,40.53,12.13,66.42s-40.65,62.3-40.65,62.3c-63.79-24.39-82.18-47.29-82.18-47.29,13.51-61.54,44-91.93,71.16-91.93S1517.33,403.68,1517.33,403.68Z" transform="translate(-125.55 -64.2)"/><path class="cls-7" d="M1513.46,339.25a123.18,123.18,0,0,1-2.14-21.11s9.69-9.4,3.26-19c-5.79-8.62-11.75,8.72-13.59,6.54a43.83,43.83,0,0,1-9.51-22.69c-1.46-12.46-44-8.34-49.11-7.42s-17.88-10.25-19.22-17.07c0,0,9.77-4.5,14.64-8.48s38.73-30.63,72.27-12.38,34.19,36.58,28.52,50.75S1529.37,338,1513.46,339.25Z" transform="translate(-125.55 -64.2)"/><path class="cls-9" d="M1637.15,903.88s-56.73-21.81-38-65.24c0,0,16-27.32,36.13-36.65,0,0-2.6,61.1,8.8,60.88s-2-68.29-2-68.29S1693.51,760,1715.51,759c0,0-25.9,63-14.9,60s41-67.36,41-67.36,55.17-18.69,69.12,13.58,1.68,51.2-6.41,54.51-62.08,10.4-59.67,17.19,40.42,12.74,59.8,3.51c0,0-14.4,58.52-44.2,60s-41.52-15.43-59.91-14.2-31,8.05-21.18,11.64,40.12-4.16,56.62,6.21,29.51,16.34,3,25.89-76,13.12-88.8-6.46Z" transform="translate(-125.55 -64.2)"/><path class="cls-9" d="M1786.33,779.44s-140.07,68.83-149.18,124.44c0,0,4.14,23.69-6.61,53.1l1.51,10.5s10.24-37.92,17.93-44C1650,923.45,1610.42,882,1786.33,779.44Z" transform="translate(-125.55 -64.2)"/><path class="cls-9" d="M1633.46,1013.73h-8.59c-6.27-31.29,5.67-56.75,5.67-56.75s11.57-19.86,3.06,5.06C1628.61,976.67,1630.8,998.33,1633.46,1013.73Z" transform="translate(-125.55 -64.2)"/><path class="cls-10" d="M1536.37,918.14s43.31-44.94,7-77.21c0,0-26.81-18.44-49.55-18.4,0,0,29,55.72,18.26,60.47s-27.8-64.42-27.8-64.42-62.88-9.82-83.8-1.23c0,0,51.48,47.4,39.94,49.37s-67.4-44.86-67.4-44.86-59.44,6.58-58.4,42.67,20.68,48.36,29.65,47.93,62.27-17.3,63-9.93-32.07,29.41-54.12,29.24c0,0,38.83,48.19,67.18,36.59s31.93-32.4,49.58-39.25,32.33-6,24.76,1.63-35.39,11.17-46.23,28-11.64,23.33,17.15,20.7,63.92-13.71,67.35-37.5Z" transform="translate(-125.55 -64.2)"/><path class="cls-9" d="M1343.5,867.19s160.24,3.17,192.87,50.95c0,0,6.45,23.84,29.23,46.54l3.15,10.42s-26-30.83-35.81-33.17C1532.94,941.93,1551.75,886.19,1343.5,867.19Z" transform="translate(-125.55 -64.2)"/><path class="cls-9" d="M1565.6,964.68s21.85,18.22,29.76,49.62l-9.66-2c-4.39-14.49-11.21-31.69-20.75-41.61C1546.21,951.23,1565.6,964.68,1565.6,964.68Z" transform="translate(-125.55 -64.2)"/><path class="cls-10" d="M1553.15,822.6s-97.93-1.5-93.7-77.58c0,0,9.12-50.25,34.32-75.51,0,0,30,93.87,47.1,87.21s-40.95-102.19-40.95-102.19,58.62-80.86,91.32-94.64c0,0-4.18,109.73,10.77,99.06s24.62-124.65,24.62-124.65,73.07-58.89,112.09-17.81,31,76.51,20.56,86-88.14,50.19-80.72,59.13,68.21-3.17,92.41-27.89c0,0,10.69,96.51-33.58,115.24s-71.37-.29-98.52,11.78-42.4,29.38-25.58,29.35,58.38-28.56,89.1-22,53.71,8.35,18.95,37.49-107.64,62-137.92,39.52Z" transform="translate(-125.55 -64.2)"/><path class="cls-9" d="M1709.75,551.56s-173.69,181.86-156.6,271c0,0,19.41,33.54,19.47,84l8.12,15s-5.56-63,2.68-76.55C1583.42,845.09,1500.57,804.38,1709.75,551.56Z" transform="translate(-125.55 -64.2)"/><path class="cls-9" d="M1605.63,1013.73c-35-48.41-33-107.12-33-107.12s6.48-36.46,7.45,5.95c.84,36.89,34.08,88.38,42.73,101.17Z" transform="translate(-125.55 -64.2)"/><path class="cls-9" d="M419.62,933.28s-28.95-31.8-3.32-53.31c0,0,18.83-12.18,34.49-11.71,0,0-21,37.81-13.77,41.29s20.41-43.82,20.41-43.82,43.51-5.53,57.74.79c0,0-36.38,31.64-28.47,33.22S534,870.16,534,870.16s40.81,5.7,39.39,30.54S558.2,933.6,552,933.13s-42.55-13.14-43.19-8.07,21.52,20.88,36.7,21.2c0,0-27.68,32.42-47,23.88s-21.36-22.94-33.38-28-22.15-4.75-17.08.63,26.68,10.11,33.83,21.9,13.46,19.71-6.31,17.33-52.2-15.82-54.1-32.27Z" transform="translate(-125.55 -64.2)"/><path class="cls-9" d="M553.46,902S443,901,419.62,933.28c0,0-4.9,16.29-21,31.48l-2.37,7.12s18.51-20.73,25.31-22.15C421.52,949.73,409.66,911,553.46,902Z" transform="translate(-125.55 -64.2)"/><path class="cls-9" d="M398.58,964.76S375.43,983,374.72,1014.3l4.31.26s6.59-32.57,19.88-45.63S398.58,964.76,398.58,964.76Z" transform="translate(-125.55 -64.2)"/><path class="cls-10" d="M390.36,858.68s-59.64-31.1-33.6-76.49c0,0,21.08-28,44.33-35.77,0,0-10.52,66.85,2,68s6.36-75.34,6.36-75.34,60.89-31.56,85.21-29.94c0,0-36.38,66.06-23.92,64.12s53.52-68.92,53.52-68.92,63-13.62,74.29,23.61-4.58,56.5-13.89,59.13-69.56,3.64-67.76,11.42,42.84,19.07,65.31,11.35c0,0-23.18,62.53-56.13,60.39S482.41,848.1,462,847.14s-35.08,5-24.75,10.14,44.63.46,61.48,13.93,30.39,21.68.07,28.84S413.66,905,402,881.81Z" transform="translate(-125.55 -64.2)"/><path class="cls-9" d="M570,740.59S407.35,798.68,390.36,858.68c0,0,1.57,26.56-13.94,57.56l.35,11.73s16-40.4,25.24-46.16C402,881.81,363.71,831.29,570,740.59Z" transform="translate(-125.55 -64.2)"/><path class="cls-9" d="M376.42,916.24s-19.07,52.07-3.23,98.46l6.46-1.94s-13-64.24-.49-90.57S376.42,916.24,376.42,916.24Z" transform="translate(-125.55 -64.2)"/><rect class="cls-7" x="125.55" y="1011.25" width="1687.31" height="4.96" rx="2.01" transform="translate(1812.86 1963.25) rotate(180)"/><path class="cls-4" d="M904.61,213h142.12c18.67,0,34,14.87,34,33v52.33a32.37,32.37,0,0,1-8.45,21.73l8.45,37.56L1032,331.37H904.61c-18.68,0-34-14.86-34-33V246C870.66,227.84,885.93,213,904.61,213Z" transform="translate(-125.55 -64.2)"/><path class="cls-6" d="M901.93,252.84h147.34a5.46,5.46,0,0,0,5.51-5.37h0a5.45,5.45,0,0,0-5.51-5.36H901.93a5.45,5.45,0,0,0-5.51,5.36h0A5.46,5.46,0,0,0,901.93,252.84Z" transform="translate(-125.55 -64.2)"/><path class="cls-6" d="M901.93,276.32h147.34a5.45,5.45,0,0,0,5.51-5.36h0a5.46,5.46,0,0,0-5.51-5.37H901.93a5.46,5.46,0,0,0-5.51,5.37h0A5.45,5.45,0,0,0,901.93,276.32Z" transform="translate(-125.55 -64.2)"/><path class="cls-6" d="M901.93,298.93h147.34a5.46,5.46,0,0,0,5.51-5.37h0a5.46,5.46,0,0,0-5.51-5.37H901.93a5.46,5.46,0,0,0-5.51,5.37h0A5.46,5.46,0,0,0,901.93,298.93Z" transform="translate(-125.55 -64.2)"/><path class="cls-10" d="M904.23,370.6H788.4c-15.22,0-27.67,12.11-27.67,26.92v42.65a26.35,26.35,0,0,0,6.88,17.71l-6.88,30.61,39.68-21.39H904.23c15.22,0,27.67-12.12,27.67-26.93V397.52C931.9,382.71,919.45,370.6,904.23,370.6Z" transform="translate(-125.55 -64.2)"/><path class="cls-9" d="M906.41,403.09H786.33a4.45,4.45,0,0,1-4.5-4.38h0a4.45,4.45,0,0,1,4.5-4.37H906.41a4.45,4.45,0,0,1,4.49,4.37h0A4.45,4.45,0,0,1,906.41,403.09Z" transform="translate(-125.55 -64.2)"/><path class="cls-9" d="M906.41,422.23H786.33a4.45,4.45,0,0,1-4.5-4.38h0a4.45,4.45,0,0,1,4.5-4.37H906.41a4.45,4.45,0,0,1,4.49,4.37h0A4.45,4.45,0,0,1,906.41,422.23Z" transform="translate(-125.55 -64.2)"/></svg>